# xmcd
#
# Track frame offsets: 
#        187
#        20437
#        34992
#        47027
#        67250
#        82997
#        99517
#        114237
#        127270
#        140730
#
# Disc length: 2051 seconds
#
# Revision: 3
# Processed by: cddbd v1.5.1PL0 Copyright (c) Steve Scherf et al.
# Submitted via: ExactAudioCopy v0.95a5
#
DISCID=8e08010a
DTITLE=Walter Hyatt - King Tears
DYEAR=1990
DGENRE=Country
TTITLE0=Tell Me Baby
TTITLE1=Blind Love Blues
TTITLE2=This Time, Lucille
TTITLE3=Ruby
TTITLE4=Outside Looking In
TTITLE5=Que Reste-T-Il de Nos Amours?
TTITLE6=In November
TTITLE7=Situé
TTITLE8=King Tears
TTITLE9=Aloha
EXTD=more info - MillenniumMusicProjectFormat - SYNTAX=SongTitle{Subtit
EXTD=le}[miscInfo](Lyricist;Composer;Date,Artist,Location,State,Countr
EXTD=y)
EXTT0=
EXTT1=
EXTT2=
EXTT3=
EXTT4=
EXTT5=
EXTT6=
EXTT7=
EXTT8=
EXTT9=
PLAYORDER=
